HIERARCHY
ROOT Hips
{
	OFFSET 0.000000 0.000000 0.000000
	CHANNELS 6 Xposition Yposition Zposition Zrotation Xrotation Yrotation
	JOINT Spine
	{
		OFFSET 0.000000 0.059888 0.006665
		CHANNELS 6 Xposition Yposition Zposition Zrotation Xrotation Yrotation
		JOINT Chest
		{
			OFFSET 0.000000 0.125681 -0.015911
			CHANNELS 6 Xposition Yposition Zposition Zrotation Xrotation Yrotation
			JOINT UpperChest
			{
				OFFSET 0.000000 0.122768 -0.001652
				CHANNELS 6 Xposition Yposition Zposition Zrotation Xrotation Yrotation
				JOINT Neck
				{
					OFFSET 0.000000 0.155865 0.008735
					CHANNELS 6 Xposition Yposition Zposition Zrotation Xrotation Yrotation
					JOINT Head
					{
						OFFSET 0.000000 0.095969 -0.000410
						CHANNELS 6 Xposition Yposition Zposition Zrotation Xrotation Yrotation
						JOINT LeftEye
						{
							OFFSET 0.015267 0.059218 0.021494
							CHANNELS 6 Xposition Yposition Zposition Zrotation Xrotation Yrotation
							End Site
							{
								OFFSET 0.015267 0.059218 0.021494
							}
						}
						JOINT RightEye
						{
							OFFSET -0.015267 0.059218 0.021494
							CHANNELS 6 Xposition Yposition Zposition Zrotation Xrotation Yrotation
							End Site
							{
								OFFSET -0.015267 0.059218 0.021494
							}
						}
					}
				}
				JOINT LeftShoulder
				{
					OFFSET 0.025383 0.124268 0.007699
					CHANNELS 6 Xposition Yposition Zposition Zrotation Xrotation Yrotation
					JOINT LeftUpperArm
					{
						OFFSET 0.136062 0.000000 0.000000
						CHANNELS 6 Xposition Yposition Zposition Zrotation Xrotation Yrotation
						JOINT LeftLowerArm
						{
							OFFSET 0.225446 0.000000 0.000000
							CHANNELS 6 Xposition Yposition Zposition Zrotation Xrotation Yrotation
							JOINT LeftHand
							{
								OFFSET 0.256325 0.000003 0.000015
								CHANNELS 6 Xposition Yposition Zposition Zrotation Xrotation Yrotation
								JOINT LeftIndexProximal
								{
									OFFSET 0.074229 0.008101 0.022282
									CHANNELS 6 Xposition Yposition Zposition Zrotation Xrotation Yrotation
									JOINT LeftIndexIntermediate
									{
										OFFSET 0.037712 0.000000 -0.000001
										CHANNELS 6 Xposition Yposition Zposition Zrotation Xrotation Yrotation
										JOINT LeftIndexDistal
										{
											OFFSET 0.023218 0.000022 0.000021
											CHANNELS 6 Xposition Yposition Zposition Zrotation Xrotation Yrotation
											End Site
											{
												OFFSET 0.023218 0.000022 0.000021
											}
										}
									}
								}
								JOINT LeftLittleProximal
								{
									OFFSET 0.069261 0.008101 -0.033073
									CHANNELS 6 Xposition Yposition Zposition Zrotation Xrotation Yrotation
									JOINT LeftLittleIntermediate
									{
										OFFSET 0.035643 0.000000 0.000000
										CHANNELS 6 Xposition Yposition Zposition Zrotation Xrotation Yrotation
										JOINT LeftLittleDistal
										{
											OFFSET 0.020542 0.000000 0.000000
											CHANNELS 6 Xposition Yposition Zposition Zrotation Xrotation Yrotation
											End Site
											{
												OFFSET 0.020542 0.000000 0.000000
											}
										}
									}
								}
								JOINT LeftMiddleProximal
								{
									OFFSET 0.075240 0.008101 0.002320
									CHANNELS 6 Xposition Yposition Zposition Zrotation Xrotation Yrotation
									JOINT LeftMiddleIntermediate
									{
										OFFSET 0.042007 0.000000 0.000000
										CHANNELS 6 Xposition Yposition Zposition Zrotation Xrotation Yrotation
										JOINT LeftMiddleDistal
										{
											OFFSET 0.025915 0.000000 0.000000
											CHANNELS 6 Xposition Yposition Zposition Zrotation Xrotation Yrotation
											End Site
											{
												OFFSET 0.025915 0.000000 0.000000
											}
										}
									}
								}
								JOINT LeftRingProximal
								{
									OFFSET 0.074383 0.008101 -0.015403
									CHANNELS 6 Xposition Yposition Zposition Zrotation Xrotation Yrotation
									JOINT LeftRingIntermediate
									{
										OFFSET 0.038967 0.000000 0.000000
										CHANNELS 6 Xposition Yposition Zposition Zrotation Xrotation Yrotation
										JOINT LeftRingDistal
										{
											OFFSET 0.022488 0.000000 0.000000
											CHANNELS 6 Xposition Yposition Zposition Zrotation Xrotation Yrotation
											End Site
											{
												OFFSET 0.022488 0.000000 0.000000
											}
										}
									}
								}
								JOINT LeftThumbProximal
								{
									OFFSET 0.003995 -0.010985 0.018096
									CHANNELS 6 Xposition Yposition Zposition Zrotation Xrotation Yrotation
									JOINT LeftThumbIntermediate
									{
										OFFSET 0.052819 -0.000008 -0.000074
										CHANNELS 6 Xposition Yposition Zposition Zrotation Xrotation Yrotation
										JOINT LeftThumbDistal
										{
											OFFSET 0.032489 0.000042 -0.000035
											CHANNELS 6 Xposition Yposition Zposition Zrotation Xrotation Yrotation
											End Site
											{
												OFFSET 0.032489 0.000042 -0.000035
											}
										}
									}
								}
							}
						}
					}
				}
				JOINT RightShoulder
				{
					OFFSET -0.025383 0.124268 0.007699
					CHANNELS 6 Xposition Yposition Zposition Zrotation Xrotation Yrotation
					JOINT RightUpperArm
					{
						OFFSET -0.136062 0.000000 0.000000
						CHANNELS 6 Xposition Yposition Zposition Zrotation Xrotation Yrotation
						JOINT RightLowerArm
						{
							OFFSET -0.225446 0.000000 0.000000
							CHANNELS 6 Xposition Yposition Zposition Zrotation Xrotation Yrotation
							JOINT RightHand
							{
								OFFSET -0.256325 0.000003 0.000015
								CHANNELS 6 Xposition Yposition Zposition Zrotation Xrotation Yrotation
								JOINT RightIndexProximal
								{
									OFFSET -0.074229 0.008101 0.022282
									CHANNELS 6 Xposition Yposition Zposition Zrotation Xrotation Yrotation
									JOINT RightIndexIntermediate
									{
										OFFSET -0.037712 0.000000 -0.000001
										CHANNELS 6 Xposition Yposition Zposition Zrotation Xrotation Yrotation
										JOINT RightIndexDistal
										{
											OFFSET -0.023218 0.000022 0.000021
											CHANNELS 6 Xposition Yposition Zposition Zrotation Xrotation Yrotation
											End Site
											{
												OFFSET -0.023218 0.000022 0.000021
											}
										}
									}
								}
								JOINT RightLittleProximal
								{
									OFFSET -0.069261 0.008101 -0.033073
									CHANNELS 6 Xposition Yposition Zposition Zrotation Xrotation Yrotation
									JOINT RightLittleIntermediate
									{
										OFFSET -0.035643 0.000000 0.000000
										CHANNELS 6 Xposition Yposition Zposition Zrotation Xrotation Yrotation
										JOINT RightLittleDistal
										{
											OFFSET -0.020542 0.000000 0.000000
											CHANNELS 6 Xposition Yposition Zposition Zrotation Xrotation Yrotation
											End Site
											{
												OFFSET -0.020542 0.000000 0.000000
											}
										}
									}
								}
								JOINT RightMiddleProximal
								{
									OFFSET -0.075240 0.008101 0.002320
									CHANNELS 6 Xposition Yposition Zposition Zrotation Xrotation Yrotation
									JOINT RightMiddleIntermediate
									{
										OFFSET -0.042007 0.000000 0.000000
										CHANNELS 6 Xposition Yposition Zposition Zrotation Xrotation Yrotation
										JOINT RightMiddleDistal
										{
											OFFSET -0.025915 0.000000 0.000000
											CHANNELS 6 Xposition Yposition Zposition Zrotation Xrotation Yrotation
											End Site
											{
												OFFSET -0.025915 0.000000 0.000000
											}
										}
									}
								}
								JOINT RightRingProximal
								{
									OFFSET -0.074383 0.008101 -0.015403
									CHANNELS 6 Xposition Yposition Zposition Zrotation Xrotation Yrotation
									JOINT RightRingIntermediate
									{
										OFFSET -0.038967 0.000000 0.000000
										CHANNELS 6 Xposition Yposition Zposition Zrotation Xrotation Yrotation
										JOINT RightRingDistal
										{
											OFFSET -0.022488 0.000000 0.000000
											CHANNELS 6 Xposition Yposition Zposition Zrotation Xrotation Yrotation
											End Site
											{
												OFFSET -0.022488 0.000000 0.000000
											}
										}
									}
								}
								JOINT RightThumbProximal
								{
									OFFSET -0.003995 -0.010985 0.018096
									CHANNELS 6 Xposition Yposition Zposition Zrotation Xrotation Yrotation
									JOINT RightThumbIntermediate
									{
										OFFSET -0.052819 -0.000008 -0.000074
										CHANNELS 6 Xposition Yposition Zposition Zrotation Xrotation Yrotation
										JOINT RightThumbDistal
										{
											OFFSET -0.032489 0.000042 -0.000035
											CHANNELS 6 Xposition Yposition Zposition Zrotation Xrotation Yrotation
											End Site
											{
												OFFSET -0.032489 0.000042 -0.000035
											}
										}
									}
								}
							}
						}
					}
				}
			}
		}
	}
	JOINT LeftUpperLeg
	{
		OFFSET 0.087143 -0.045243 0.001548
		CHANNELS 6 Xposition Yposition Zposition Zrotation Xrotation Yrotation
		JOINT LeftLowerLeg
		{
			OFFSET 0.000000 -0.394432 -0.000001
			CHANNELS 6 Xposition Yposition Zposition Zrotation Xrotation Yrotation
			JOINT LeftFoot
			{
				OFFSET 0.000000 -0.466446 0.003058
				CHANNELS 6 Xposition Yposition Zposition Zrotation Xrotation Yrotation
				JOINT LeftToes
				{
					OFFSET 0.000000 -0.079218 0.140851
					CHANNELS 6 Xposition Yposition Zposition Zrotation Xrotation Yrotation
					End Site
					{
						OFFSET 0.000000 -0.079218 0.140851
					}
				}
			}
		}
	}
	JOINT RightUpperLeg
	{
		OFFSET -0.087143 -0.045243 0.001548
		CHANNELS 6 Xposition Yposition Zposition Zrotation Xrotation Yrotation
		JOINT RightLowerLeg
		{
			OFFSET 0.000000 -0.394432 -0.000001
			CHANNELS 6 Xposition Yposition Zposition Zrotation Xrotation Yrotation
			JOINT RightFoot
			{
				OFFSET 0.000000 -0.466446 0.003058
				CHANNELS 6 Xposition Yposition Zposition Zrotation Xrotation Yrotation
				JOINT RightToes
				{
					OFFSET 0.000000 -0.079218 0.140851
					CHANNELS 6 Xposition Yposition Zposition Zrotation Xrotation Yrotation
					End Site
					{
						OFFSET 0.000000 -0.079218 0.140851
					}
				}
			}
		}
	}
}
MOTION
Frames: 4
Frame Time: 0.041667
-0.025951 1.009472 0.076797 2.007986 14.526938 13.321729 0.000000 0.059888 0.006665 -3.403579 9.316656 12.318127 0.000000 0.125681 -0.015911 -0.897220 2.827893 -0.226784 0.000000 0.122768 -0.001652 -0.000011 -12.397651 -0.000010 -0.000000 0.155865 0.008735 -1.183137 16.324758 0.105206 0.000000 0.095969 -0.000410 -3.209430 2.600402 -2.272554 0.015267 0.059218 0.021494 -1.701131 3.586993 21.747932 -0.015267 0.059218 0.021494 1.701133 3.587004 -21.747923 0.025383 0.124268 0.007699 9.678045 -4.171620 17.421518 0.136062 -0.000000 0.000000 -80.772308 7.925099 17.270191 0.225446 0.000000 -0.000000 -6.888904 11.142455 -25.291707 0.256325 0.000003 0.000015 8.780983 30.022602 -10.481084 0.074229 0.008101 0.022282 -0.012967 0.667619 1.112105 0.037712 0.000000 -0.000001 -1.679194 1.282860 0.674522 0.023218 0.000022 0.000021 -0.334986 1.286455 -0.710999 0.069261 0.008101 -0.033073 0.000007 -0.000042 0.000001 0.035643 -0.000000 0.000000 0.000003 -0.000001 -0.000000 0.020542 -0.000000 0.000000 0.890205 -0.008563 -1.101172 0.075240 0.008101 0.002320 0.000001 -0.000008 -0.000006 0.042007 0.000000 -0.000000 0.000002 0.000038 -0.000013 0.025915 -0.000000 0.000000 0.000001 0.000039 -0.000013 0.074383 0.008101 -0.015403 0.000001 0.000013 0.000004 0.038967 0.000000 -0.000000 0.000003 0.000000 0.000000 0.022488 0.000000 0.000000 -0.712570 -0.008158 1.310729 0.003995 -0.010985 0.018096 86.199487 49.487521 -89.646574 0.052819 -0.000008 -0.000074 -2.573031 -0.739913 0.463022 0.032489 0.000042 -0.000035 4.590284 -0.705068 -0.717111 -0.025383 0.124268 0.007699 1.419978 -4.211163 -15.931611 -0.136062 0.000000 0.000000 69.043855 20.697285 -2.690367 -0.225446 0.000000 -0.000000 2.451541 29.746321 70.437610 -0.256325 0.000003 0.000015 -10.151465 23.366704 12.743581 -0.074229 0.008101 0.022282 0.012963 0.667619 -1.112108 -0.037712 0.000000 -0.000001 1.679197 1.282864 -0.674527 -0.023218 0.000022 0.000021 0.334985 1.286449 0.711008 -0.069261 0.008101 -0.033073 -0.000007 -0.000042 0.000000 -0.035643 -0.000000 -0.000000 -0.000004 -0.000001 -0.000001 -0.020542 -0.000000 -0.000000 -0.890203 -0.008561 1.101176 -0.075240 0.008101 0.002320 -0.000003 -0.000007 0.000005 -0.042007 -0.000000 -0.000000 -0.000004 0.000038 0.000013 -0.025915 -0.000000 0.000000 -0.000001 0.000038 0.000014 -0.074383 0.008101 -0.015403 -0.000004 0.000016 -0.000004 -0.038967 0.000000 0.000000 -0.000004 -0.000001 0.000001 -0.022488 0.000000 -0.000000 0.712573 -0.008160 -1.310730 -0.003995 -0.010985 0.018096 -86.199433 49.487524 89.646588 -0.052819 -0.000008 -0.000074 2.573040 -0.739908 -0.463024 -0.032489 0.000042 -0.000035 -4.590282 -0.705063 0.717111 0.087143 -0.045243 0.001548 11.003179 -21.360614 4.050967 0.000000 -0.394432 -0.000001 -23.397887 54.598855 27.960983 -0.000000 -0.466446 0.003058 -11.901294 -15.635201 -38.700924 0.000000 -0.079218 0.140851 -0.000001 0.248285 -0.000001 -0.087143 -0.045243 0.001548 -12.433277 -4.468025 -0.983941 -0.000000 -0.394432 -0.000001 9.596526 29.576444 -18.508718 -0.000000 -0.466446 0.003058 4.538043 -5.627201 40.936483 0.000000 -0.079218 0.140851 -0.000001 0.248290 -0.000004 
-0.028823 1.009649 0.071471 1.652890 13.745591 12.527666 -0.000000 0.059888 0.006665 -3.452406 9.410519 14.872044 0.000000 0.125681 -0.015911 -0.402861 2.946390 -0.131308 -0.000000 0.122768 -0.001652 -0.000008 -12.397645 -0.000008 0.000000 0.155865 0.008735 -1.735061 15.960069 0.096457 -0.000000 0.095969 -0.000410 -2.881463 2.751784 -3.696701 0.015267 0.059218 0.021494 -1.701131 3.586993 21.747930 -0.015267 0.059218 0.021494 1.701131 3.587000 -21.747923 0.025383 0.124268 0.007699 9.024571 -4.144307 17.146254 0.136062 -0.000000 -0.000000 -80.034231 5.760159 18.708761 0.225446 -0.000000 0.000000 -8.260613 12.825126 -26.433773 0.256325 0.000003 0.000015 11.846463 30.747428 -12.014339 0.074229 0.008101 0.022282 -0.012969 0.667619 1.112106 0.037712 -0.000000 -0.000001 -1.679194 1.282861 0.674522 0.023218 0.000022 0.000021 -0.334983 1.286453 -0.710999 0.069261 0.008101 -0.033073 0.000004 -0.000042 0.000001 0.035643 0.000000 0.000000 0.000003 -0.000000 0.000000 0.020542 -0.000000 -0.000000 0.890204 -0.008561 -1.101172 0.075240 0.008101 0.002320 -0.000001 -0.000008 -0.000006 0.042007 -0.000000 -0.000000 0.000001 0.000039 -0.000013 0.025915 -0.000000 0.000000 0.000001 0.000039 -0.000013 0.074383 0.008101 -0.015403 -0.000001 0.000014 0.000004 0.038967 0.000000 -0.000000 0.000003 -0.000000 0.000000 0.022488 0.000000 0.000000 -0.712572 -0.008158 1.310730 0.003995 -0.010985 0.018096 86.199487 49.487517 -89.646574 0.052819 -0.000008 -0.000074 -2.573032 -0.739915 0.463021 0.032489 0.000042 -0.000035 4.590281 -0.705068 -0.717109 -0.025383 0.124268 0.007699 1.022703 -4.186205 -15.486069 -0.136062 -0.000000 0.000000 68.464539 21.281427 -1.765961 -0.225446 -0.000000 -0.000000 4.795423 28.948971 75.095539 -0.256325 0.000003 0.000015 -11.152941 25.312165 12.929653 -0.074229 0.008101 0.022282 0.012968 0.667623 -1.112109 -0.037712 -0.000000 -0.000001 1.679198 1.282861 -0.674528 -0.023218 0.000022 0.000021 0.334984 1.286457 0.710995 -0.069261 0.008101 -0.033073 -0.000003 -0.000043 -0.000004 -0.035643 -0.000000 0.000000 0.000000 0.000003 -0.000003 -0.020542 -0.000000 0.000000 -0.890204 -0.008560 1.101170 -0.075240 0.008101 0.002320 0.000001 -0.000003 0.000001 -0.042007 -0.000000 -0.000000 -0.000001 0.000041 0.000014 -0.025915 0.000000 0.000000 -0.000004 0.000041 0.000010 -0.074383 0.008101 -0.015403 0.000001 0.000018 -0.000008 -0.038967 0.000000 -0.000000 0.000001 0.000001 -0.000001 -0.022488 0.000000 0.000000 0.712575 -0.008160 -1.310732 -0.003995 -0.010985 0.018096 -86.199439 49.487521 89.646588 -0.052819 -0.000008 -0.000074 2.573040 -0.739908 -0.463022 -0.032489 0.000042 -0.000035 -4.590281 -0.705063 0.717108 0.087143 -0.045243 0.001548 16.124092 -25.881858 7.192267 -0.000000 -0.394432 -0.000001 -33.509499 62.014757 36.862432 -0.000000 -0.466446 0.003058 -18.505877 -20.309340 -44.499919 0.000000 -0.079218 0.140851 -0.000001 0.248285 -0.000000 -0.087143 -0.045243 0.001548 -12.348924 -4.887844 -1.068630 0.000000 -0.394432 -0.000001 11.086489 28.221553 -21.920241 0.000000 -0.466446 0.003058 7.636574 -8.695950 42.827666 0.000000 -0.079218 0.140851 -0.000001 0.248283 -0.000005 
-0.031593 1.012290 0.063227 1.079620 13.169104 12.585101 0.000000 0.059888 0.006665 -3.332063 9.514054 16.575746 -0.000000 0.125681 -0.015911 0.081204 3.010114 -0.047096 -0.000000 0.122768 -0.001652 -0.000010 -12.397650 -0.000001 0.000000 0.155865 0.008735 -2.040845 15.588058 0.092853 -0.000000 0.095969 -0.000410 -2.500572 2.759766 -5.574986 0.015267 0.059218 0.021494 -1.701133 3.586994 21.747935 -0.015267 0.059218 0.021494 1.701131 3.587007 -21.747923 0.025383 0.124268 0.007699 8.721809 -4.091087 16.692509 0.136062 -0.000000 -0.000000 -79.597816 3.983965 19.919070 0.225446 -0.000000 0.000000 -9.546983 15.274115 -27.534822 0.256325 0.000003 0.000015 14.122148 29.772969 -13.169011 0.074229 0.008101 0.022282 -0.012967 0.667618 1.112106 0.037712 0.000000 -0.000001 -1.679191 1.282861 0.674522 0.023218 0.000022 0.000021 -0.334982 1.286453 -0.710999 0.069261 0.008101 -0.033073 0.000005 -0.000042 0.000001 0.035643 -0.000000 -0.000000 0.000003 -0.000000 0.000000 0.020542 -0.000000 0.000000 0.890203 -0.008562 -1.101172 0.075240 0.008101 0.002320 -0.000000 -0.000008 -0.000006 0.042007 0.000000 -0.000000 0.000004 0.000039 -0.000013 0.025915 0.000000 -0.000000 0.000003 0.000039 -0.000013 0.074383 0.008101 -0.015403 -0.000000 0.000013 0.000004 0.038967 -0.000000 -0.000000 0.000003 -0.000000 0.000000 0.022488 0.000000 -0.000000 -0.712572 -0.008158 1.310729 0.003995 -0.010985 0.018096 86.199487 49.487524 -89.646574 0.052819 -0.000008 -0.000074 -2.573045 -0.739913 0.463021 0.032489 0.000042 -0.000035 4.590285 -0.705068 -0.717110 -0.025383 0.124268 0.007699 1.036297 -4.129310 -15.091773 -0.136062 0.000000 -0.000000 67.544007 21.836000 -0.758257 -0.225446 -0.000000 -0.000000 6.929577 28.137135 78.820240 -0.256325 0.000003 0.000015 -11.861242 26.941345 13.051021 -0.074229 0.008101 0.022282 0.012966 0.667616 -1.112106 -0.037712 -0.000000 -0.000001 1.679195 1.282859 -0.674519 -0.023218 0.000022 0.000021 0.334983 1.286450 0.710999 -0.069261 0.008101 -0.033073 -0.000009 -0.000046 0.000000 -0.035643 -0.000000 -0.000000 -0.000002 -0.000000 0.000002 -0.020542 0.000000 -0.000000 -0.890205 -0.008560 1.101171 -0.075240 0.008101 0.002320 -0.000000 -0.000010 0.000008 -0.042007 -0.000000 -0.000000 -0.000002 0.000039 0.000014 -0.025915 -0.000000 0.000000 -0.000002 0.000041 0.000011 -0.074383 0.008101 -0.015403 -0.000002 0.000011 -0.000003 -0.038967 0.000000 -0.000000 -0.000001 -0.000001 0.000003 -0.022488 -0.000000 -0.000000 0.712573 -0.008159 -1.310729 -0.003995 -0.010985 0.018096 -86.199433 49.487514 89.646581 -0.052819 -0.000008 -0.000074 2.573041 -0.739911 -0.463022 -0.032489 0.000042 -0.000035 -4.590277 -0.705066 0.717110 0.087143 -0.045243 0.001548 20.703915 -29.201183 10.447474 -0.000000 -0.394432 -0.000001 -44.853449 67.297676 47.161497 -0.000000 -0.466446 0.003058 -23.363301 -23.906929 -47.292541 0.000000 -0.079218 0.140851 -0.000000 0.248283 -0.000001 -0.087143 -0.045243 0.001548 -11.495468 -6.190732 -1.256317 -0.000000 -0.394432 -0.000001 11.483781 27.583642 -22.980469 -0.000000 -0.466446 0.003058 10.721689 -12.331652 42.442372 -0.000000 -0.079218 0.140851 -0.000000 0.248287 0.000000 
-0.033938 1.016537 0.052480 0.468733 12.929013 13.233097 0.000000 0.059888 0.006665 -3.163984 9.547047 17.567257 -0.000000 0.125681 -0.015911 0.446669 2.983322 0.010661 -0.000000 0.122768 -0.001652 -0.000010 -12.397648 -0.000005 -0.000000 0.155865 0.008735 -2.092810 15.318270 0.094087 0.000000 0.095969 -0.000410 -2.058829 2.704994 -7.730229 0.015267 0.059218 0.021494 -1.701129 3.586993 21.747930 -0.015267 0.059218 0.021494 1.701134 3.587007 -21.747925 0.025383 0.124268 0.007699 8.759181 -4.003299 16.203702 0.136062 0.000000 0.000000 -79.546371 2.672931 20.827424 0.225446 -0.000000 0.000000 -10.634085 17.798778 -28.551615 0.256325 0.000003 0.000015 15.082081 28.338177 -13.783475 0.074229 0.008101 0.022282 -0.012967 0.667619 1.112106 0.037712 0.000000 -0.000001 -1.679193 1.282861 0.674522 0.023218 0.000022 0.000021 -0.334985 1.286453 -0.710999 0.069261 0.008101 -0.033073 0.000004 -0.000042 0.000001 0.035643 -0.000000 0.000000 0.000002 -0.000000 0.000000 0.020542 0.000000 -0.000000 0.890202 -0.008562 -1.101172 0.075240 0.008101 0.002320 -0.000001 -0.000008 -0.000006 0.042007 -0.000000 0.000000 0.000004 0.000039 -0.000013 0.025915 -0.000000 0.000000 0.000003 0.000039 -0.000013 0.074383 0.008101 -0.015403 -0.000002 0.000014 0.000004 0.038967 0.000000 -0.000000 0.000004 -0.000000 -0.000000 0.022488 0.000000 -0.000000 -0.712571 -0.008158 1.310729 0.003995 -0.010985 0.018096 86.199494 49.487521 -89.646574 0.052819 -0.000008 -0.000074 -2.573028 -0.739914 0.463022 0.032489 0.000042 -0.000035 4.590286 -0.705067 -0.717110 -0.025383 0.124268 0.007699 1.369595 -4.034375 -14.812867 -0.136062 0.000000 -0.000000 66.417374 22.383512 0.271536 -0.225446 0.000000 -0.000000 8.574379 27.305520 81.466480 -0.256325 0.000003 0.000015 -12.424861 28.405065 12.977867 -0.074229 0.008101 0.022282 0.012968 0.667620 -1.112110 -0.037712 0.000000 -0.000001 1.679195 1.282861 -0.674525 -0.023218 0.000022 0.000021 0.334984 1.286454 0.710998 -0.069261 0.008101 -0.033073 -0.000008 -0.000042 0.000000 -0.035643 -0.000000 -0.000000 -0.000003 0.000001 0.000001 -0.020542 0.000000 0.000000 -0.890206 -0.008562 1.101169 -0.075240 0.008101 0.002320 0.000000 -0.000010 0.000005 -0.042007 -0.000000 -0.000000 -0.000003 0.000041 0.000011 -0.025915 -0.000000 0.000000 -0.000002 0.000041 0.000014 -0.074383 0.008101 -0.015403 0.000001 0.000012 -0.000003 -0.038967 0.000000 -0.000000 0.000002 -0.000000 0.000000 -0.022488 0.000000 -0.000000 0.712572 -0.008156 -1.310730 -0.003995 -0.010985 0.018096 -86.199433 49.487524 89.646588 -0.052819 -0.000008 -0.000074 2.573041 -0.739910 -0.463022 -0.032489 0.000042 -0.000035 -4.590280 -0.705070 0.717111 0.087143 -0.045243 0.001548 24.075983 -31.797809 13.248356 0.000000 -0.394432 -0.000001 -56.247383 70.632011 57.771345 -0.000000 -0.466446 0.003058 -23.959376 -25.652100 -46.180333 0.000000 -0.079218 0.140851 -0.000001 0.248285 0.000000 -0.087143 -0.045243 0.001548 -10.493756 -8.204092 -1.514034 -0.000000 -0.394432 -0.000001 11.283005 27.600228 -22.567695 0.000000 -0.466446 0.003058 12.634407 -15.412877 40.843012 -0.000000 -0.079218 0.140851 0.000000 0.248283 0.000001 
